# Blender v2.69 (sub 0) OBJ File: 'diamond.blend'
# www.blender.org
mtllib diamond.mtl
o Gem
v -0.000000 -0.430000 -0.000000
v 0.000000 0.145000 0.000000
v -0.041421 -0.344000 -0.100000
v 0.000000 0.000000 -0.481271
v -0.145389 0.094144 -0.351000
v 0.000000 0.145000 -0.280000
v 0.041421 -0.344000 -0.100000
v 0.340310 0.000000 -0.340310
v 0.145389 0.094144 -0.351000
v 0.197990 0.145000 -0.197990
v 0.100000 -0.344000 -0.041421
v 0.481271 -0.000000 0.000000
v 0.351000 0.094144 -0.145389
v 0.280000 0.145000 0.000000
v 0.100000 -0.344000 0.041421
v 0.340310 -0.000000 0.340310
v 0.351000 0.094144 0.145389
v 0.197990 0.145000 0.197990
v 0.041421 -0.344000 0.100000
v -0.000000 -0.000000 0.481271
v 0.145389 0.094144 0.351000
v -0.000000 0.145000 0.280000
v -0.041421 -0.344000 0.100000
v -0.340310 -0.000000 0.340310
v -0.145389 0.094144 0.351000
v -0.197990 0.145000 0.197990
v -0.100000 -0.344000 0.041421
v -0.481271 0.000000 -0.000000
v -0.351000 0.094144 0.145389
v -0.280000 0.145000 -0.000000
v -0.100000 -0.344000 -0.041421
v -0.340310 0.000000 -0.340310
v -0.351000 0.094144 -0.145389
v -0.197990 0.145000 -0.197990
v -0.184174 -0.000000 0.444636
v -0.444636 0.000000 -0.184174
v 0.184174 -0.000000 0.444636
v -0.444636 0.000000 0.184174
v 0.444636 -0.000000 0.184174
v 0.184174 0.000000 -0.444636
v -0.184174 0.000000 -0.444636
v 0.444636 0.000000 -0.184174
vt 0.235417 0.829755
vt 0.390189 0.644892
vt 0.447244 0.613913
vt 0.417892 0.671508
vt 0.380763 0.896985
vt 0.305204 0.877984
vt 0.161550 0.218148
vt 0.177065 0.138662
vt 0.224513 0.213424
vt 0.286170 0.167898
vt 0.285687 0.263472
vt 0.741725 0.880437
vt 0.652386 0.928694
vt 0.629516 0.855214
vt 0.182025 0.759640
vt 0.218884 0.380122
vt 0.176235 0.302937
vt 0.269773 0.341288
vt 0.270984 0.101671
vt 0.347804 0.342023
vt 0.182174 0.531375
vt 0.402247 0.583829
vt 0.383708 0.608574
vt 0.153158 0.678314
vt 0.153210 0.598158
vt 0.358833 0.467624
vt 0.283004 0.437953
vt 0.380250 0.410363
vt 0.436135 0.357537
vt 0.767062 0.487388
vt 0.804191 0.261912
vt 0.833543 0.204317
vt 0.235639 0.488131
vt 0.499418 0.429394
vt 0.434828 0.464618
vt 0.491229 0.380184
vt 0.677288 0.531258
vt 0.741725 0.576228
vt 0.659741 0.596900
vt 0.621716 0.420158
vt 0.776488 0.235296
vt 0.691503 0.468387
vt 0.526089 0.583040
vt 0.576973 0.520036
vt 0.583952 0.608308
vt 0.614620 0.681154
vt 0.539457 0.268718
vt 0.770007 0.198978
vt 0.568324 0.350044
vt 0.501022 0.753024
vt 0.499418 0.664854
vt 0.564164 0.742495
vt 0.632794 0.779635
vt 0.568473 0.121778
vt 0.788546 0.174233
vt 0.539509 0.188562
vt 0.583807 0.895813
vt 0.530655 0.834126
vt 0.703616 0.834654
vt 0.621938 0.078535
vt 0.725951 0.927764
vt 0.348970 0.111287
vt 0.392552 0.234412
vt 0.498935 0.300926
vt 0.499418 0.205352
vt 0.437301 0.126801
vt 0.836889 0.263234
vt 0.836889 0.474268
vt 0.644324 0.485435
vt 0.450590 0.672831
vt 0.450590 0.883865
vt 0.220418 0.076582
vn 0.427742 -0.744361 -0.512799
vn 0.133638 -0.728540 -0.671841
vn 0.134151 0.726055 -0.674424
vn 0.148035 0.922150 -0.357387
vn -0.414176 0.810504 -0.414176
vn 0.569559 -0.728540 -0.380567
vn 0.571750 0.726054 -0.382031
vn -0.000000 0.810504 -0.585734
vn 0.357387 0.922150 -0.148034
vn 0.512799 -0.744361 0.427742
vn 0.671841 -0.728540 0.133638
vn 0.674424 0.726055 0.134152
vn 0.414176 0.810504 -0.414176
vn 0.357387 0.922150 0.148035
vn 0.060144 -0.744361 0.665063
vn 0.380567 -0.728540 0.569559
vn 0.382031 0.726055 0.571749
vn 0.585734 0.810504 0.000000
vn 0.148035 0.922150 0.357387
vn -0.427742 -0.744361 0.512799
vn -0.133638 -0.728540 0.671841
vn -0.134152 0.726054 0.674424
vn 0.414176 0.810504 0.414176
vn -0.148034 0.922150 0.357387
vn -0.665063 -0.744361 0.060144
vn -0.569559 -0.728540 0.380567
vn -0.571750 0.726054 0.382031
vn 0.000000 0.810504 0.585734
vn -0.357387 0.922150 0.148034
vn -0.512799 -0.744361 -0.427742
vn -0.671841 -0.728540 -0.133638
vn -0.674424 0.726055 -0.134152
vn -0.414176 0.810504 0.414176
vn -0.357387 0.922150 -0.148035
vn -0.060144 -0.744361 -0.665063
vn -0.380567 -0.728540 -0.569559
vn -0.382031 0.726055 -0.571749
vn -0.585734 0.810504 -0.000000
vn -0.148035 0.922150 -0.357387
vn 0.000000 1.000000 0.000000
vn 0.380567 -0.728540 -0.569559
vn 0.382031 0.726055 -0.571749
vn 0.671841 -0.728540 -0.133638
vn 0.674424 0.726055 -0.134151
vn 0.569559 -0.728540 0.380567
vn 0.571749 0.726054 0.382031
vn 0.133637 -0.728540 0.671841
vn 0.134151 0.726055 0.674424
vn -0.380567 -0.728540 0.569559
vn -0.382031 0.726055 0.571749
vn -0.671841 -0.728540 0.133638
vn -0.674424 0.726055 0.134151
vn -0.569559 -0.728540 -0.380567
vn -0.571749 0.726055 -0.382031
vn -0.133638 -0.728540 -0.671841
vn -0.134151 0.726055 -0.674424
vn 0.665063 -0.744361 -0.060144
vn 0.512800 -0.744361 -0.427742
vn -0.411758 0.812964 -0.411758
vn 0.000000 0.812964 -0.582314
vn 0.427742 -0.744361 0.512799
vn 0.411758 0.812964 -0.411758
vn -0.060144 -0.744361 0.665063
vn 0.582314 0.812964 0.000000
vn -0.512799 -0.744361 0.427742
vn 0.411758 0.812964 0.411758
vn -0.665063 -0.744361 -0.060145
vn -0.000000 0.812964 0.582314
vn -0.427742 -0.744361 -0.512800
vn -0.411758 0.812964 0.411758
vn 0.060145 -0.744361 -0.665063
vn -0.582313 0.812964 0.000000
vn 0.665063 -0.744361 0.060145
usemtl Material.003
s off
f 8/1/1 11/2/1 1/3/1
f 7/4/2 4/5/2 40/6/2
f 40/7/3 4/8/3 9/9/3
f 9/9/4 6/10/4 10/11/4
f 5/12/5 32/13/5 33/14/5
f 11/2/6 8/1/6 42/15/6
f 42/16/7 8/17/7 13/18/7
f 9/9/8 4/8/8 5/19/8
f 13/18/9 10/11/9 14/20/9
f 16/21/10 19/22/10 1/3/10
f 15/23/11 12/24/11 39/25/11
f 39/26/12 12/27/12 17/28/12
f 13/18/13 8/17/13 9/9/13
f 17/28/14 14/20/14 18/29/14
f 20/30/15 23/31/15 1/32/15
f 19/22/16 16/21/16 37/33/16
f 37/34/17 16/35/17 21/36/17
f 17/28/18 12/27/18 13/18/18
f 21/37/19 18/38/19 22/39/19
f 24/40/20 27/41/20 1/32/20
f 23/31/21 20/30/21 35/42/21
f 35/43/22 20/44/22 25/45/22
f 21/36/23 16/35/23 17/28/23
f 25/45/24 22/39/24 26/46/24
f 28/47/25 31/48/25 1/32/25
f 27/41/26 24/40/26 38/49/26
f 38/50/27 24/51/27 29/52/27
f 25/45/28 20/44/28 21/37/28
f 29/52/29 26/46/29 30/53/29
f 32/54/30 3/55/30 1/32/30
f 31/48/31 28/47/31 36/56/31
f 36/57/32 28/58/32 33/14/32
f 29/52/33 24/51/33 25/45/33
f 33/14/34 30/53/34 34/59/34
f 4/5/35 7/4/35 1/3/35
f 3/55/36 32/54/36 41/60/36
f 41/61/37 32/13/37 5/12/37
f 33/14/38 28/58/38 29/52/38
f 5/19/39 34/62/39 6/10/39
f 6/10/40 34/62/40 2/63/40
f 2/63/40 10/11/40 6/10/40
f 2/63/40 14/20/40 10/11/40
f 2/63/40 18/29/40 14/20/40
f 2/63/40 22/64/40 18/29/40
f 2/63/40 26/65/40 22/64/40
f 2/63/40 30/66/40 26/65/40
f 2/63/40 34/62/40 30/66/40
f 8/1/41 7/4/41 40/6/41
f 8/17/42 40/7/42 9/9/42
f 12/24/43 11/2/43 42/15/43
f 12/27/44 42/16/44 13/18/44
f 16/21/45 15/23/45 39/25/45
f 16/35/46 39/26/46 17/28/46
f 20/30/47 19/67/47 37/68/47
f 20/44/48 37/69/48 21/37/48
f 24/40/49 23/31/49 35/42/49
f 24/51/50 35/43/50 25/45/50
f 28/47/51 27/41/51 38/49/51
f 28/58/52 38/50/52 29/52/52
f 32/54/53 31/48/53 36/56/53
f 32/13/54 36/57/54 33/14/54
f 4/5/55 3/70/55 41/71/55
f 4/8/56 41/72/56 5/19/56
f 12/24/57 15/23/57 1/3/57
f 7/4/58 8/1/58 1/3/58
f 34/59/59 5/12/59 33/14/59
f 6/10/60 9/9/60 5/19/60
f 15/23/61 16/21/61 1/3/61
f 10/11/62 13/18/62 9/9/62
f 19/67/63 20/30/63 1/32/63
f 14/20/64 17/28/64 13/18/64
f 23/31/65 24/40/65 1/32/65
f 18/29/66 21/36/66 17/28/66
f 27/41/67 28/47/67 1/32/67
f 22/39/68 25/45/68 21/37/68
f 31/48/69 32/54/69 1/32/69
f 26/46/70 29/52/70 25/45/70
f 3/70/71 4/5/71 1/3/71
f 30/53/72 33/14/72 29/52/72
f 11/2/73 12/24/73 1/3/73
